<?xml version="1.0" encoding="UTF-8" standalone="no"?>
<!DOCTYPE svg PUBLIC "-//W3C//DTD SVG 1.1//EN"
 "http://www.w3.org/Graphics/SVG/1.1/DTD/svg11.dtd">
<!-- Generated by graphviz version 2.43.0 (0)
 -->
<!-- Title: sourcetree Pages: 1 -->
<svg width="242pt" height="260pt"
 viewBox="0.00 0.00 241.50 260.00" xmlns="http://www.w3.org/2000/svg" xmlns:xlink="http://www.w3.org/1999/xlink">
<g id="graph0" class="graph" transform="scale(1 1) rotate(0) translate(4 256)">
<title>sourcetree</title>
<polygon fill="white" stroke="transparent" points="-4,4 -4,-256 237.5,-256 237.5,4 -4,4"/>
<!-- mulle&#45;rbtree -->
<g id="node1" class="node">
<title>mulle&#45;rbtree</title>
<polygon fill="yellow" stroke="black" points="177.5,-252 71.5,-252 71.5,-216 177.5,-216 177.5,-252"/>
<text text-anchor="middle" x="124.5" y="-230.3" font-family="Times,serif" font-size="14.00">mulle&#45;rbtree</text>
</g>
<!-- mulle&#45;storage -->
<g id="node5" class="node">
<title>mulle&#45;storage</title>
<g id="a_node5"><a xlink:href="https://github.com/mulle-c/mulle-storage" xlink:title="mulle&#45;storage">
<polygon fill="lightgrey" stroke="black" points="182,-180 67,-180 67,-144 182,-144 182,-180"/>
<text text-anchor="middle" x="124.5" y="-158.3" font-family="Times,serif" font-size="14.00">mulle&#45;storage</text>
</a>
</g>
</g>
<!-- mulle&#45;rbtree&#45;&gt;mulle&#45;storage -->
<g id="edge3" class="edge">
<title>mulle&#45;rbtree&#45;&gt;mulle&#45;storage</title>
<path fill="none" stroke="black" d="M124.5,-215.7C124.5,-207.98 124.5,-198.71 124.5,-190.11"/>
<polygon fill="black" stroke="black" points="128,-190.1 124.5,-180.1 121,-190.1 128,-190.1"/>
</g>
<!-- mulle&#45;allocator -->
<g id="node2" class="node">
<title>mulle&#45;allocator</title>
<g id="a_node2"><a xlink:href="https://github.com/mulle-c/mulle-allocator" xlink:title="mulle&#45;allocator">
<polygon fill="lightgrey" stroke="black" points="123,-36 0,-36 0,0 123,0 123,-36"/>
<text text-anchor="middle" x="61.5" y="-14.3" font-family="Times,serif" font-size="14.00">mulle&#45;allocator</text>
</a>
</g>
</g>
<!-- mulle&#45;container -->
<g id="node3" class="node">
<title>mulle&#45;container</title>
<g id="a_node3"><a xlink:href="https://github.com/mulle-c/mulle-container" xlink:title="mulle&#45;container">
<polygon fill="lightgrey" stroke="black" points="188.5,-108 60.5,-108 60.5,-72 188.5,-72 188.5,-108"/>
<text text-anchor="middle" x="124.5" y="-86.3" font-family="Times,serif" font-size="14.00">mulle&#45;container</text>
</a>
</g>
</g>
<!-- mulle&#45;container&#45;&gt;mulle&#45;allocator -->
<g id="edge1" class="edge">
<title>mulle&#45;container&#45;&gt;mulle&#45;allocator</title>
<path fill="none" stroke="black" d="M108.93,-71.7C101.3,-63.22 91.98,-52.86 83.62,-43.58"/>
<polygon fill="black" stroke="black" points="86.19,-41.2 76.89,-36.1 80.98,-45.88 86.19,-41.2"/>
</g>
<!-- mulle&#45;data -->
<g id="node4" class="node">
<title>mulle&#45;data</title>
<g id="a_node4"><a xlink:href="https://github.com/mulle-c/mulle-data" xlink:title="mulle&#45;data">
<polygon fill="lightgrey" stroke="black" points="233.5,-36 141.5,-36 141.5,0 233.5,0 233.5,-36"/>
<text text-anchor="middle" x="187.5" y="-14.3" font-family="Times,serif" font-size="14.00">mulle&#45;data</text>
</a>
</g>
</g>
<!-- mulle&#45;container&#45;&gt;mulle&#45;data -->
<g id="edge2" class="edge">
<title>mulle&#45;container&#45;&gt;mulle&#45;data</title>
<path fill="none" stroke="black" d="M140.07,-71.7C147.7,-63.22 157.02,-52.86 165.38,-43.58"/>
<polygon fill="black" stroke="black" points="168.02,-45.88 172.11,-36.1 162.81,-41.2 168.02,-45.88"/>
</g>
<!-- mulle&#45;storage&#45;&gt;mulle&#45;container -->
<g id="edge4" class="edge">
<title>mulle&#45;storage&#45;&gt;mulle&#45;container</title>
<path fill="none" stroke="black" d="M124.5,-143.7C124.5,-135.98 124.5,-126.71 124.5,-118.11"/>
<polygon fill="black" stroke="black" points="128,-118.1 124.5,-108.1 121,-118.1 128,-118.1"/>
</g>
</g>
</svg>
